<svg id="Capa_1" data-name="Capa 1" xmlns="http://www.w3.org/2000/svg" viewBox="0 0 1332.465 374.54"><defs><style>.cls-1{fill:#404040;}.cls-2{fill:#bfbfbf;}.cls-3{fill:#999;}</style></defs><title>allspeednotpressed</title><polygon class="cls-1" points="1313.424 340.49 1294.394 340.49 1275.353 340.49 1256.323 340.49 1237.282 340.49 1218.252 340.49 1199.211 340.49 1180.181 340.49 1161.151 340.49 1142.11 340.49 1123.08 340.49 1104.039 340.49 1085.009 340.49 1065.967 340.49 1046.937 340.49 1027.896 340.49 1008.866 340.49 989.825 340.49 970.795 340.49 951.754 340.49 932.724 340.49 913.683 340.49 894.653 340.49 875.623 340.49 856.582 340.49 837.552 340.49 818.511 340.49 799.481 340.49 780.44 340.49 761.41 340.49 742.369 340.49 723.339 340.49 704.298 340.49 685.268 340.49 666.227 340.49 647.197 340.49 628.156 340.49 609.126 340.49 590.085 340.49 571.055 340.49 552.025 340.49 532.984 340.49 513.954 340.49 494.913 340.49 475.883 340.49 456.842 340.49 437.812 340.49 418.771 340.49 399.741 340.49 380.699 340.49 361.67 340.49 342.628 340.49 323.598 340.49 304.557 340.49 285.527 340.49 266.497 340.49 247.456 340.49 228.426 340.49 209.385 340.49 190.355 340.49 171.314 340.49 152.284 340.49 133.243 340.49 114.213 340.49 95.172 340.49 76.142 340.49 57.101 340.49 38.071 340.49 19.03 340.49 19.03 323.47 0 323.47 0 340.49 0 357.52 19.03 357.52 19.03 374.54 38.071 374.54 57.101 374.54 76.142 374.54 95.172 374.54 114.213 374.54 133.243 374.54 152.284 374.54 171.314 374.54 190.355 374.54 209.385 374.54 228.426 374.54 247.456 374.54 266.497 374.54 285.527 374.54 304.557 374.54 323.598 374.54 342.628 374.54 361.67 374.54 380.699 374.54 399.741 374.54 418.771 374.54 437.812 374.54 456.842 374.54 475.883 374.54 494.913 374.54 513.954 374.54 532.984 374.54 552.025 374.54 571.055 374.54 590.085 374.54 609.126 374.54 628.156 374.54 647.197 374.54 666.227 374.54 685.268 374.54 704.298 374.54 723.339 374.54 742.369 374.54 761.41 374.54 780.44 374.54 799.481 374.54 818.511 374.54 837.552 374.54 856.582 374.54 875.623 374.54 894.653 374.54 913.683 374.54 932.724 374.54 951.754 374.54 970.795 374.54 989.825 374.54 1008.866 374.54 1027.896 374.54 1046.937 374.54 1065.967 374.54 1085.009 374.54 1104.039 374.54 1123.08 374.54 1142.11 374.54 1161.151 374.54 1180.181 374.54 1199.211 374.54 1218.252 374.54 1237.282 374.54 1256.323 374.54 1275.353 374.54 1294.394 374.54 1313.424 374.54 1313.424 357.52 1332.465 357.52 1332.465 340.49 1332.465 323.47 1313.424 323.47 1313.424 340.49"/><rect class="cls-2" x="1313.424" y="306.44" width="19.041" height="17.03"/><polygon class="cls-3" points="1313.424 17.02 1313.424 0 1294.394 0 1275.353 0 1256.323 0 1237.282 0 1218.252 0 1199.211 0 1180.181 0 1161.151 0 1142.11 0 1123.08 0 1104.039 0 1085.009 0 1065.967 0 1046.937 0 1027.896 0 1008.866 0 989.825 0 970.795 0 951.754 0 932.724 0 913.683 0 894.653 0 875.623 0 856.582 0 837.552 0 818.511 0 799.481 0 780.44 0 761.41 0 742.369 0 723.339 0 704.298 0 685.268 0 666.227 0 647.197 0 628.156 0 609.126 0 590.085 0 571.055 0 552.025 0 532.984 0 513.954 0 494.913 0 475.883 0 456.842 0 437.812 0 418.771 0 399.741 0 380.699 0 361.67 0 342.628 0 323.598 0 304.557 0 285.527 0 266.497 0 247.456 0 228.426 0 209.385 0 190.355 0 171.314 0 152.284 0 133.243 0 114.213 0 95.172 0 76.142 0 57.101 0 38.071 0 19.03 0 19.03 17.02 0 17.02 0 34.05 0 51.07 0 68.1 0 85.12 0 102.15 0 119.17 0 136.19 0 153.22 0 170.24 0 187.27 0 204.29 0 221.32 0 238.34 0 255.37 0 272.39 0 289.42 0 306.44 19.03 306.44 19.03 323.47 38.071 323.47 57.101 323.47 76.142 323.47 95.172 323.47 114.213 323.47 133.243 323.47 152.284 323.47 171.314 323.47 190.355 323.47 209.385 323.47 228.426 323.47 247.456 323.47 266.497 323.47 285.527 323.47 304.557 323.47 323.598 323.47 342.628 323.47 361.67 323.47 380.699 323.47 399.741 323.47 418.771 323.47 437.812 323.47 456.842 323.47 475.883 323.47 494.913 323.47 513.954 323.47 532.984 323.47 552.025 323.47 571.055 323.47 590.085 323.47 609.126 323.47 628.156 323.47 647.197 323.47 666.227 323.47 685.268 323.47 704.298 323.47 723.339 323.47 742.369 323.47 761.41 323.47 780.44 323.47 799.481 323.47 818.511 323.47 837.552 323.47 856.582 323.47 875.623 323.47 894.653 323.47 913.683 323.47 932.724 323.47 951.754 323.47 970.795 323.47 989.825 323.47 1008.866 323.47 1027.896 323.47 1046.937 323.47 1065.967 323.47 1085.009 323.47 1104.039 323.47 1123.08 323.47 1142.11 323.47 1161.151 323.47 1180.181 323.47 1199.211 323.47 1218.252 323.47 1237.282 323.47 1256.323 323.47 1275.353 323.47 1294.394 323.47 1313.424 323.47 1313.424 306.44 1332.465 306.44 1332.465 289.42 1332.465 272.39 1332.465 255.37 1332.465 238.34 1332.465 221.32 1332.465 204.29 1332.465 187.27 1332.465 170.24 1332.465 153.22 1332.465 136.19 1332.465 119.17 1332.465 102.15 1332.465 85.12 1332.465 68.1 1332.465 51.07 1332.465 34.05 1332.465 17.02 1313.424 17.02"/><polygon class="cls-2" points="38.071 340.49 57.101 340.49 76.142 340.49 95.172 340.49 114.213 340.49 133.243 340.49 152.284 340.49 171.314 340.49 190.355 340.49 209.385 340.49 228.426 340.49 247.456 340.49 266.497 340.49 285.527 340.49 304.557 340.49 323.598 340.49 342.628 340.49 361.67 340.49 380.699 340.49 399.741 340.49 418.771 340.49 437.812 340.49 456.842 340.49 475.883 340.49 494.913 340.49 513.954 340.49 532.984 340.49 552.025 340.49 571.055 340.49 590.085 340.49 609.126 340.49 628.156 340.49 647.197 340.49 666.227 340.49 685.268 340.49 704.298 340.49 723.339 340.49 742.369 340.49 761.41 340.49 780.44 340.49 799.481 340.49 818.511 340.49 837.552 340.49 856.582 340.49 875.623 340.49 894.653 340.49 913.683 340.49 932.724 340.49 951.754 340.49 970.795 340.49 989.825 340.49 1008.866 340.49 1027.896 340.49 1046.937 340.49 1065.967 340.49 1085.009 340.49 1104.039 340.49 1123.08 340.49 1142.11 340.49 1161.151 340.49 1180.181 340.49 1199.211 340.49 1218.252 340.49 1237.282 340.49 1256.323 340.49 1275.353 340.49 1294.394 340.49 1313.424 340.49 1313.424 323.47 1294.394 323.47 1275.353 323.47 1256.323 323.47 1237.282 323.47 1218.252 323.47 1199.211 323.47 1180.181 323.47 1161.151 323.47 1142.11 323.47 1123.08 323.47 1104.039 323.47 1085.009 323.47 1065.967 323.47 1046.937 323.47 1027.896 323.47 1008.866 323.47 989.825 323.47 970.795 323.47 951.754 323.47 932.724 323.47 913.683 323.47 894.653 323.47 875.623 323.47 856.582 323.47 837.552 323.47 818.511 323.47 799.481 323.47 780.44 323.47 761.41 323.47 742.369 323.47 723.339 323.47 704.298 323.47 685.268 323.47 666.227 323.47 647.197 323.47 628.156 323.47 609.126 323.47 590.085 323.47 571.055 323.47 552.025 323.47 532.984 323.47 513.954 323.47 494.913 323.47 475.883 323.47 456.842 323.47 437.812 323.47 418.771 323.47 399.741 323.47 380.699 323.47 361.67 323.47 342.628 323.47 323.598 323.47 304.557 323.47 285.527 323.47 266.497 323.47 247.456 323.47 228.426 323.47 209.385 323.47 190.355 323.47 171.314 323.47 152.284 323.47 133.243 323.47 114.213 323.47 95.172 323.47 76.142 323.47 57.101 323.47 38.071 323.47 19.03 323.47 19.03 340.49 38.071 340.49"/><rect class="cls-2" y="306.44" width="19.03" height="17.03"/></svg>