<svg id="Capa_1" data-name="Capa 1" xmlns="http://www.w3.org/2000/svg" viewBox="0 0 368.64 546.14"><defs><style>.cls-1{fill:#74be9b;}.cls-2{fill:#ffeead;}.cls-3{fill:#ffae00;}.cls-4{fill:#b3d9ff;}.cls-5{fill:#ffd780;}</style></defs><title>greenrocket</title><polygon class="cls-1" points="354.99 409.6 354.99 395.95 354.99 382.3 341.33 382.3 341.33 368.64 327.68 368.64 327.68 354.99 314.03 354.99 314.03 341.34 300.37 341.34 300.37 327.68 286.72 327.68 286.72 341.34 286.72 354.99 273.07 354.99 273.07 368.64 273.07 382.3 259.41 382.3 259.41 395.95 259.41 409.6 245.76 409.6 245.76 423.26 245.76 436.91 259.41 436.91 273.07 436.91 273.07 450.57 286.72 450.57 286.72 464.22 300.37 464.22 300.37 477.87 314.03 477.87 314.03 491.53 314.03 505.18 314.03 518.83 314.03 532.49 314.03 546.14 327.68 546.14 327.68 532.49 341.33 532.49 341.33 518.83 341.33 505.18 354.99 505.18 354.99 491.53 354.99 477.87 368.64 477.87 368.64 464.22 368.64 450.57 368.64 436.91 368.64 423.26 368.64 409.6 354.99 409.6"/><rect class="cls-1" x="273.07" y="286.72" width="13.65" height="13.66"/><rect class="cls-1" x="273.07" y="150.19" width="13.65" height="13.65"/><rect class="cls-1" x="259.41" y="300.38" width="13.66" height="13.65"/><rect class="cls-2" x="259.41" y="286.72" width="13.66" height="13.66"/><rect class="cls-1" x="259.41" y="273.07" width="13.66" height="13.65"/><rect class="cls-1" x="259.41" y="163.84" width="13.66" height="13.66"/><rect class="cls-2" x="259.41" y="150.19" width="13.66" height="13.65"/><rect class="cls-1" x="259.41" y="136.54" width="13.66" height="13.65"/><rect class="cls-1" x="245.76" y="286.72" width="13.65" height="13.66"/><rect class="cls-1" x="245.76" y="150.19" width="13.65" height="13.65"/><polygon class="cls-3" points="245.76 409.6 259.41 409.6 259.41 395.95 259.41 382.3 273.07 382.3 273.07 368.64 273.07 354.99 286.72 354.99 286.72 341.34 286.72 327.68 273.07 327.68 259.41 327.68 245.76 327.68 232.11 327.68 218.45 327.68 204.8 327.68 191.15 327.68 177.49 327.68 163.84 327.68 150.19 327.68 136.53 327.68 122.88 327.68 109.23 327.68 95.57 327.68 81.92 327.68 81.92 341.34 81.92 354.99 95.57 354.99 95.57 368.64 95.57 382.3 109.23 382.3 109.23 395.95 109.23 409.6 122.88 409.6 122.88 423.26 122.88 436.91 136.53 436.91 136.53 450.57 150.19 450.57 163.84 450.57 163.84 436.91 163.84 423.26 163.84 409.6 163.84 395.95 163.84 382.3 163.84 368.64 163.84 354.99 177.49 354.99 191.15 354.99 204.8 354.99 204.8 368.64 204.8 382.3 204.8 395.95 204.8 409.6 204.8 423.26 204.8 436.91 204.8 450.57 218.45 450.57 232.11 450.57 232.11 436.91 245.76 436.91 245.76 423.26 245.76 409.6"/><polygon class="cls-2" points="204.8 450.57 204.8 464.22 191.15 464.22 191.15 477.87 191.15 491.53 191.15 505.18 204.8 505.18 204.8 491.53 218.45 491.53 218.45 477.87 218.45 464.22 232.11 464.22 232.11 450.57 218.45 450.57 204.8 450.57"/><polygon class="cls-1" points="191.15 477.87 191.15 464.22 204.8 464.22 204.8 450.57 204.8 436.91 204.8 423.26 204.8 409.6 204.8 395.95 204.8 382.3 204.8 368.64 204.8 354.99 191.15 354.99 177.49 354.99 163.84 354.99 163.84 368.64 163.84 382.3 163.84 395.95 163.84 409.6 163.84 423.26 163.84 436.91 163.84 450.57 163.84 464.22 177.49 464.22 177.49 477.87 177.49 491.53 177.49 505.18 177.49 518.83 177.49 532.49 177.49 546.14 191.15 546.14 191.15 532.49 191.15 518.83 191.15 505.18 191.15 491.53 191.15 477.87"/><polygon class="cls-2" points="177.49 477.87 177.49 464.22 163.84 464.22 163.84 450.57 150.19 450.57 136.53 450.57 136.53 464.22 150.19 464.22 150.19 477.87 150.19 491.53 163.84 491.53 163.84 505.18 177.49 505.18 177.49 491.53 177.49 477.87"/><polygon class="cls-4" points="136.53 245.76 150.19 245.76 150.19 259.42 163.84 259.42 163.84 273.07 177.49 273.07 191.15 273.07 204.8 273.07 204.8 259.42 218.45 259.42 218.45 245.76 232.11 245.76 232.11 232.11 232.11 218.46 232.11 204.8 218.45 204.8 218.45 191.15 204.8 191.15 204.8 177.5 191.15 177.5 177.49 177.5 163.84 177.5 163.84 191.15 150.19 191.15 150.19 204.8 136.53 204.8 136.53 218.46 136.53 232.11 136.53 245.76"/><path class="cls-1" d="M587.1,1024.01v27.31h13.65v13.65h13.66v13.65h68.26v-13.65h13.66v-13.65h13.65V983.05H696.33V969.4H682.67V955.74H614.41V969.4H600.75v13.65H587.1v40.96Zm13.65-27.31h13.66V983.05h13.65V969.4h40.96v13.65h13.65V996.7h13.66v40.96H682.67v13.66H669.02v13.65H628.06v-13.65H614.41v-13.66H600.75V996.7Z" transform="translate(-464.22 -791.9)"/><polygon class="cls-1" points="136.53 95.58 150.19 95.58 163.84 95.58 177.49 95.58 191.15 95.58 204.8 95.58 218.45 95.58 232.11 95.58 245.76 95.58 259.41 95.58 259.41 81.92 245.76 81.92 245.76 68.27 232.11 68.27 232.11 54.61 218.45 54.61 218.45 40.96 204.8 40.96 204.8 27.31 191.15 27.31 191.15 13.65 191.15 0 177.49 0 177.49 13.65 177.49 27.31 163.84 27.31 163.84 40.96 150.19 40.96 150.19 54.61 136.53 54.61 136.53 68.27 122.88 68.27 122.88 81.92 109.23 81.92 109.23 95.58 122.88 95.58 136.53 95.58"/><polygon class="cls-1" points="122.88 409.6 109.23 409.6 109.23 395.95 109.23 382.3 95.57 382.3 95.57 368.64 95.57 354.99 81.92 354.99 81.92 341.34 81.92 327.68 68.27 327.68 68.27 341.34 54.61 341.34 54.61 354.99 40.96 354.99 40.96 368.64 27.3 368.64 27.3 382.3 13.65 382.3 13.65 395.95 13.65 409.6 0 409.6 0 423.26 0 436.91 0 450.57 0 464.22 0 477.87 13.65 477.87 13.65 491.53 13.65 505.18 27.3 505.18 27.3 518.83 27.3 532.49 40.96 532.49 40.96 546.14 54.61 546.14 54.61 532.49 54.61 518.83 54.61 505.18 54.61 491.53 54.61 477.87 68.27 477.87 68.27 464.22 81.92 464.22 81.92 450.57 95.57 450.57 95.57 436.91 109.23 436.91 122.88 436.91 122.88 423.26 122.88 409.6"/><rect class="cls-1" x="109.23" y="286.72" width="13.65" height="13.66"/><rect class="cls-1" x="109.23" y="150.19" width="13.65" height="13.65"/><polygon class="cls-3" points="122.88 122.88 136.53 122.88 150.19 122.88 163.84 122.88 177.49 122.88 191.15 122.88 204.8 122.88 218.45 122.88 232.11 122.88 245.76 122.88 259.41 122.88 273.07 122.88 273.07 109.23 273.07 95.58 259.41 95.58 245.76 95.58 232.11 95.58 218.45 95.58 204.8 95.58 191.15 95.58 177.49 95.58 163.84 95.58 150.19 95.58 136.53 95.58 122.88 95.58 109.23 95.58 95.57 95.58 95.57 109.23 95.57 122.88 109.23 122.88 122.88 122.88"/><rect class="cls-1" x="95.57" y="300.38" width="13.66" height="13.65"/><rect class="cls-2" x="95.57" y="286.72" width="13.66" height="13.66"/><rect class="cls-1" x="95.57" y="273.07" width="13.66" height="13.65"/><rect class="cls-1" x="95.57" y="163.84" width="13.66" height="13.66"/><rect class="cls-2" x="95.57" y="150.19" width="13.66" height="13.65"/><rect class="cls-1" x="95.57" y="136.54" width="13.66" height="13.65"/><polygon class="cls-2" points="109.23 136.54 122.88 136.54 136.53 136.54 150.19 136.54 163.84 136.54 177.49 136.54 191.15 136.54 204.8 136.54 218.45 136.54 232.11 136.54 245.76 136.54 259.41 136.54 273.07 136.54 286.72 136.54 286.72 122.88 273.07 122.88 259.41 122.88 245.76 122.88 232.11 122.88 218.45 122.88 204.8 122.88 191.15 122.88 177.49 122.88 163.84 122.88 150.19 122.88 136.53 122.88 122.88 122.88 109.23 122.88 95.57 122.88 81.92 122.88 81.92 136.54 95.57 136.54 109.23 136.54"/><polygon class="cls-2" points="95.57 327.68 109.23 327.68 122.88 327.68 136.53 327.68 150.19 327.68 163.84 327.68 177.49 327.68 191.15 327.68 204.8 327.68 218.45 327.68 232.11 327.68 245.76 327.68 259.41 327.68 273.07 327.68 286.72 327.68 300.37 327.68 300.37 314.03 286.72 314.03 273.07 314.03 259.41 314.03 245.76 314.03 232.11 314.03 218.45 314.03 204.8 314.03 191.15 314.03 177.49 314.03 163.84 314.03 150.19 314.03 136.53 314.03 122.88 314.03 109.23 314.03 95.57 314.03 81.92 314.03 68.27 314.03 68.27 327.68 81.92 327.68 95.57 327.68"/><path class="cls-5" d="M559.79,1105.93v-13.65H546.14v-13.66h13.65v-13.65h13.66v13.65H587.1v13.66H573.45v13.65H723.63v-13.65H709.98v-13.66h13.65v-13.65h13.66v13.65h13.65v13.66H737.29v13.65h27.3v-27.31h13.66V955.74H764.59v-27.3h-27.3v13.65h13.65v13.65H737.29V969.4H723.63V955.74H709.98V942.09h13.65V928.44H573.45v13.65H587.1v13.65H573.45V969.4H559.79V955.74H546.14V942.09h13.65V928.44h-27.3v27.3H518.83v122.88h13.66v27.31h27.3ZM587.1,983.05h13.65V969.4h13.66V955.74h68.26V969.4h13.66v13.65h13.65v68.27H696.33v13.65H682.67v13.65H614.41v-13.65H600.75v-13.65H587.1V983.05Z" transform="translate(-464.22 -791.9)"/><rect class="cls-1" x="81.92" y="286.72" width="13.65" height="13.66"/><rect class="cls-1" x="81.92" y="150.19" width="13.65" height="13.65"/></svg>