<svg id="Capa_1" data-name="Capa 1" xmlns="http://www.w3.org/2000/svg" viewBox="0 0 259.42 300.37"><defs><style>.cls-1{fill:#418b68;}.cls-2{fill:#a8d6c1;}.cls-3{fill:#74be9b;}</style></defs><title>greenbrakenotpressed</title><polygon class="cls-1" points="245.76 273.07 232.11 273.07 218.46 273.07 204.8 273.07 191.15 273.07 177.5 273.07 163.84 273.07 150.19 273.07 136.54 273.07 122.88 273.07 109.23 273.07 95.58 273.07 81.92 273.07 68.27 273.07 54.62 273.07 40.96 273.07 27.31 273.07 13.66 273.07 13.66 259.41 0 259.41 0 273.07 0 286.72 13.66 286.72 13.66 300.37 27.31 300.37 40.96 300.37 54.62 300.37 68.27 300.37 81.92 300.37 95.58 300.37 109.23 300.37 122.88 300.37 136.54 300.37 150.19 300.37 163.84 300.37 177.5 300.37 191.15 300.37 204.8 300.37 218.46 300.37 232.11 300.37 245.76 300.37 245.76 286.72 259.42 286.72 259.42 273.07 259.42 259.41 245.76 259.41 245.76 273.07"/><rect class="cls-2" x="245.76" y="245.76" width="13.66" height="13.65"/><path class="cls-3" d="M1119.58,750.94V737.29H887.48v13.65H873.82V983.05h13.66V996.7h232.1V983.05h13.66V750.94h-13.66Zm-13.65,109.23v27.31H901.13V846.51h204.8v13.66Z" transform="translate(-873.82 -737.29)"/><polygon class="cls-1" points="204.8 109.22 191.15 109.22 177.5 109.22 163.84 109.22 150.19 109.22 136.54 109.22 122.88 109.22 109.23 109.22 95.58 109.22 81.92 109.22 68.27 109.22 54.62 109.22 40.96 109.22 27.31 109.22 27.31 122.88 27.31 136.53 27.31 150.19 40.96 150.19 54.62 150.19 68.27 150.19 81.92 150.19 95.58 150.19 109.23 150.19 122.88 150.19 136.54 150.19 150.19 150.19 163.84 150.19 177.5 150.19 191.15 150.19 204.8 150.19 218.46 150.19 232.11 150.19 232.11 136.53 232.11 122.88 232.11 109.22 218.46 109.22 204.8 109.22"/><polygon class="cls-2" points="27.31 273.07 40.96 273.07 54.62 273.07 68.27 273.07 81.92 273.07 95.58 273.07 109.23 273.07 122.88 273.07 136.54 273.07 150.19 273.07 163.84 273.07 177.5 273.07 191.15 273.07 204.8 273.07 218.46 273.07 232.11 273.07 245.76 273.07 245.76 259.41 232.11 259.41 218.46 259.41 204.8 259.41 191.15 259.41 177.5 259.41 163.84 259.41 150.19 259.41 136.54 259.41 122.88 259.41 109.23 259.41 95.58 259.41 81.92 259.41 68.27 259.41 54.62 259.41 40.96 259.41 27.31 259.41 13.66 259.41 13.66 273.07 27.31 273.07"/><rect class="cls-2" y="245.76" width="13.66" height="13.65"/></svg>