<svg id="Capa_1" data-name="Capa 1" xmlns="http://www.w3.org/2000/svg" viewBox="0 0 259.42 259.42"><defs><style>.cls-1{fill:#418b68;}.cls-2{fill:#74be9b;}</style></defs><title>greenboostpressed</title><polygon class="cls-1" points="204.8 109.23 191.15 109.23 177.49 109.23 163.84 109.23 150.19 109.23 150.19 95.58 150.19 81.92 150.19 68.27 150.19 54.62 150.19 40.96 150.19 27.31 136.53 27.31 122.88 27.31 109.23 27.31 109.23 40.96 109.23 54.62 109.23 68.27 109.23 81.92 109.23 95.58 109.23 109.23 95.57 109.23 81.92 109.23 68.27 109.23 54.61 109.23 40.96 109.23 27.31 109.23 27.31 122.89 27.31 136.54 27.31 150.19 40.96 150.19 54.61 150.19 68.27 150.19 81.92 150.19 95.57 150.19 109.23 150.19 109.23 163.85 109.23 177.5 109.23 191.15 109.23 204.81 109.23 218.46 109.23 232.11 122.88 232.11 136.53 232.11 150.19 232.11 150.19 218.46 150.19 204.81 150.19 191.15 150.19 177.5 150.19 163.85 150.19 150.19 163.84 150.19 177.49 150.19 191.15 150.19 204.8 150.19 218.45 150.19 232.11 150.19 232.11 136.54 232.11 122.89 232.11 109.23 218.45 109.23 204.8 109.23"/><path class="cls-2" d="M518.83,423.26V409.6H286.72v13.66H273.07V655.37h13.65v13.65H518.83V655.37h13.66V423.26H518.83ZM505.18,532.49v27.3H423.26v81.92H382.3V559.79H300.38V518.83H382.3V436.91h40.96v81.92h81.92v13.66Z" transform="translate(-273.07 -409.6)"/></svg>