<svg id="Capa_1" data-name="Capa 1" xmlns="http://www.w3.org/2000/svg" viewBox="0 0 1191.73 323.47"><defs><style>.cls-1{fill:#74be9b;}</style></defs><title>greenwidepressed</title><polygon class="cls-1" points="1174.7 17.02 1174.7 0 1157.68 0 1140.65 0 1123.63 0 1106.6 0 1089.58 0 1072.55 0 1055.53 0 1038.51 0 1021.48 0 1004.46 0 987.43 0 970.41 0 953.38 0 936.36 0 919.33 0 902.31 0 885.28 0 868.26 0 851.23 0 834.21 0 817.18 0 800.16 0 783.14 0 766.11 0 749.09 0 732.06 0 715.04 0 698.01 0 680.99 0 663.96 0 646.94 0 629.91 0 612.89 0 595.86 0 578.84 0 561.81 0 544.79 0 527.76 0 510.74 0 493.72 0 476.69 0 459.67 0 442.64 0 425.62 0 408.59 0 391.57 0 374.54 0 357.52 0 340.49 0 323.47 0 306.44 0 289.42 0 272.39 0 255.37 0 238.35 0 221.32 0 204.3 0 187.27 0 170.25 0 153.22 0 136.2 0 119.17 0 102.15 0 85.12 0 68.1 0 51.07 0 34.05 0 17.02 0 17.02 17.02 0 17.02 0 34.05 0 51.07 0 68.1 0 85.12 0 102.15 0 119.17 0 136.2 0 153.22 0 170.25 0 187.27 0 204.3 0 221.32 0 238.34 0 255.37 0 272.39 0 289.42 0 306.44 17.02 306.44 17.02 323.47 34.05 323.47 51.07 323.47 68.1 323.47 85.12 323.47 102.15 323.47 119.17 323.47 136.2 323.47 153.22 323.47 170.25 323.47 187.27 323.47 204.3 323.47 221.32 323.47 238.35 323.47 255.37 323.47 272.39 323.47 289.42 323.47 306.44 323.47 323.47 323.47 340.49 323.47 357.52 323.47 374.54 323.47 391.57 323.47 408.59 323.47 425.62 323.47 442.64 323.47 459.67 323.47 476.69 323.47 493.72 323.47 510.74 323.47 527.76 323.47 544.79 323.47 561.81 323.47 578.84 323.47 595.86 323.47 612.89 323.47 629.91 323.47 646.94 323.47 663.96 323.47 680.99 323.47 698.01 323.47 715.04 323.47 732.06 323.47 749.09 323.47 766.11 323.47 783.14 323.47 800.16 323.47 817.18 323.47 834.21 323.47 851.23 323.47 868.26 323.47 885.28 323.47 902.31 323.47 919.33 323.47 936.36 323.47 953.38 323.47 970.41 323.47 987.43 323.47 1004.46 323.47 1021.48 323.47 1038.51 323.47 1055.53 323.47 1072.55 323.47 1089.58 323.47 1106.6 323.47 1123.63 323.47 1140.65 323.47 1157.68 323.47 1174.7 323.47 1174.7 306.44 1191.73 306.44 1191.73 289.42 1191.73 272.39 1191.73 255.37 1191.73 238.34 1191.73 221.32 1191.73 204.3 1191.73 187.27 1191.73 170.25 1191.73 153.22 1191.73 136.2 1191.73 119.17 1191.73 102.15 1191.73 85.12 1191.73 68.1 1191.73 51.07 1191.73 34.05 1191.73 17.02 1174.7 17.02"/></svg>