<svg id="Capa_1" data-name="Capa 1" xmlns="http://www.w3.org/2000/svg" viewBox="0 0 259.42 259.42"><defs><style>.cls-1{fill:#418b68;}.cls-2{fill:#74be9b;}</style></defs><title>greenbrakepressed</title><polygon class="cls-1" points="204.8 109.23 191.15 109.23 177.49 109.23 163.84 109.23 150.19 109.23 136.53 109.23 122.88 109.23 109.23 109.23 95.57 109.23 81.92 109.23 68.27 109.23 54.61 109.23 40.96 109.23 27.31 109.23 27.31 122.88 27.31 136.54 27.31 150.19 40.96 150.19 54.61 150.19 68.27 150.19 81.92 150.19 95.57 150.19 109.23 150.19 122.88 150.19 136.53 150.19 150.19 150.19 163.84 150.19 177.49 150.19 191.15 150.19 204.8 150.19 218.45 150.19 232.11 150.19 232.11 136.54 232.11 122.88 232.11 109.23 218.45 109.23 204.8 109.23"/><path class="cls-2" d="M518.83,95.57V81.92H286.72V95.57H273.07V327.68h13.65v13.66H518.83V327.68h13.66V95.57H518.83ZM505.18,204.8v27.31H300.38V191.15h204.8V204.8Z" transform="translate(-273.07 -81.92)"/></svg>