<svg id="Capa_1" data-name="Capa 1" xmlns="http://www.w3.org/2000/svg" viewBox="0 0 259.41 259.42"><defs><style>.cls-1{fill:#ff6f69;}.cls-2{fill:#990500;}</style></defs><title>redboostpressed</title><path class="cls-1" d="M819.21,423.26V409.6H587.1v13.66H573.45V655.37H587.1v13.65H819.21V655.37h13.65V423.26H819.21ZM805.55,532.49v27.3H723.63v81.92H682.67V559.79H600.75V518.83h81.92V436.91h40.96v81.92h81.92v13.66Z" transform="translate(-573.45 -409.6)"/><polygon class="cls-2" points="204.8 109.23 191.14 109.23 177.49 109.23 163.84 109.23 150.18 109.23 150.18 95.58 150.18 81.92 150.18 68.27 150.18 54.62 150.18 40.96 150.18 27.31 136.53 27.31 122.88 27.31 109.22 27.31 109.22 40.96 109.22 54.62 109.22 68.27 109.22 81.92 109.22 95.58 109.22 109.23 95.57 109.23 81.92 109.23 68.26 109.23 54.61 109.23 40.96 109.23 27.3 109.23 27.3 122.89 27.3 136.54 27.3 150.19 40.96 150.19 54.61 150.19 68.26 150.19 81.92 150.19 95.57 150.19 109.22 150.19 109.22 163.85 109.22 177.5 109.22 191.15 109.22 204.81 109.22 218.46 109.22 232.11 122.88 232.11 136.53 232.11 150.18 232.11 150.18 218.46 150.18 204.81 150.18 191.15 150.18 177.5 150.18 163.85 150.18 150.19 163.84 150.19 177.49 150.19 191.14 150.19 204.8 150.19 218.45 150.19 232.1 150.19 232.1 136.54 232.1 122.89 232.1 109.23 218.45 109.23 204.8 109.23"/></svg>