<svg id="Capa_1" data-name="Capa 1" xmlns="http://www.w3.org/2000/svg" viewBox="0 0 259.42 300.38"><defs><style>.cls-1{fill:#990500;}.cls-2{fill:#ffb5b3;}.cls-3{fill:#ff6f69;}</style></defs><title>redboostnotpressed</title><polygon class="cls-1" points="245.76 273.07 232.11 273.07 218.46 273.07 204.8 273.07 191.15 273.07 177.5 273.07 163.84 273.07 150.19 273.07 136.54 273.07 122.88 273.07 109.23 273.07 95.58 273.07 81.92 273.07 68.27 273.07 54.62 273.07 40.96 273.07 27.31 273.07 13.66 273.07 13.66 259.42 0 259.42 0 273.07 0 286.73 13.66 286.73 13.66 300.38 27.31 300.38 40.96 300.38 54.62 300.38 68.27 300.38 81.92 300.38 95.58 300.38 109.23 300.38 122.88 300.38 136.54 300.38 150.19 300.38 163.84 300.38 177.5 300.38 191.15 300.38 204.8 300.38 218.46 300.38 232.11 300.38 245.76 300.38 245.76 286.73 259.42 286.73 259.42 273.07 259.42 259.42 245.76 259.42 245.76 273.07"/><rect class="cls-2" x="245.76" y="245.77" width="13.66" height="13.65"/><path class="cls-3" d="M1119.58,423.26V409.6H887.48v13.66H873.82V655.37h13.66v13.65h232.1V655.37h13.66V423.26h-13.66Zm-13.65,109.23v27.3h-81.92v81.92H983.05V559.79H901.13V518.83h81.92V436.91h40.96v81.92h81.92v13.66Z" transform="translate(-873.82 -409.6)"/><polygon class="cls-1" points="204.8 109.23 191.15 109.23 177.5 109.23 163.84 109.23 150.19 109.23 150.19 95.58 150.19 81.92 150.19 68.27 150.19 54.62 150.19 40.96 150.19 27.31 136.54 27.31 122.88 27.31 109.23 27.31 109.23 40.96 109.23 54.62 109.23 68.27 109.23 81.92 109.23 95.58 109.23 109.23 95.58 109.23 81.92 109.23 68.27 109.23 54.62 109.23 40.96 109.23 27.31 109.23 27.31 122.89 27.31 136.54 27.31 150.19 40.96 150.19 54.62 150.19 68.27 150.19 81.92 150.19 95.58 150.19 109.23 150.19 109.23 163.85 109.23 177.5 109.23 191.15 109.23 204.81 109.23 218.46 109.23 232.11 122.88 232.11 136.54 232.11 150.19 232.11 150.19 218.46 150.19 204.81 150.19 191.15 150.19 177.5 150.19 163.85 150.19 150.19 163.84 150.19 177.5 150.19 191.15 150.19 204.8 150.19 218.46 150.19 232.11 150.19 232.11 136.54 232.11 122.89 232.11 109.23 218.46 109.23 204.8 109.23"/><polygon class="cls-2" points="27.31 273.07 40.96 273.07 54.62 273.07 68.27 273.07 81.92 273.07 95.58 273.07 109.23 273.07 122.88 273.07 136.54 273.07 150.19 273.07 163.84 273.07 177.5 273.07 191.15 273.07 204.8 273.07 218.46 273.07 232.11 273.07 245.76 273.07 245.76 259.42 232.11 259.42 218.46 259.42 204.8 259.42 191.15 259.42 177.5 259.42 163.84 259.42 150.19 259.42 136.54 259.42 122.88 259.42 109.23 259.42 95.58 259.42 81.92 259.42 68.27 259.42 54.62 259.42 40.96 259.42 27.31 259.42 13.66 259.42 13.66 273.07 27.31 273.07"/><rect class="cls-2" y="245.77" width="13.66" height="13.65"/></svg>