<svg id="Capa_1" data-name="Capa 1" xmlns="http://www.w3.org/2000/svg" viewBox="0 0 259.41 259.42"><defs><style>.cls-1{fill:#990500;}.cls-2{fill:#ff6f69;}</style></defs><title>redbrakepressed</title><polygon class="cls-1" points="204.8 109.23 191.14 109.23 177.49 109.23 163.84 109.23 150.18 109.23 136.53 109.23 122.88 109.23 109.22 109.23 95.57 109.23 81.92 109.23 68.26 109.23 54.61 109.23 40.96 109.23 27.3 109.23 27.3 122.88 27.3 136.54 27.3 150.19 40.96 150.19 54.61 150.19 68.26 150.19 81.92 150.19 95.57 150.19 109.22 150.19 122.88 150.19 136.53 150.19 150.18 150.19 163.84 150.19 177.49 150.19 191.14 150.19 204.8 150.19 218.45 150.19 232.1 150.19 232.1 136.54 232.1 122.88 232.1 109.23 218.45 109.23 204.8 109.23"/><path class="cls-2" d="M819.21,95.57V81.92H587.1V95.57H573.45V327.68H587.1v13.66H819.21V327.68h13.65V95.57H819.21ZM805.55,204.8v27.31H600.75V191.15h204.8V204.8Z" transform="translate(-573.45 -81.92)"/></svg>