<svg id="Capa_1" data-name="Capa 1" xmlns="http://www.w3.org/2000/svg" viewBox="0 0 368.65 546.14"><defs><style>.cls-1{fill:#ff6f69;}.cls-2{fill:#ffeead;}.cls-3{fill:#ffae00;}.cls-4{fill:#b3d9ff;}.cls-5{fill:#ffd780;}</style></defs><title>redrocket</title><polygon class="cls-1" points="354.99 409.6 354.99 395.95 354.99 382.3 341.34 382.3 341.34 368.64 327.69 368.64 327.69 354.99 314.03 354.99 314.03 341.34 300.38 341.34 300.38 327.68 286.73 327.68 286.73 341.34 286.73 354.99 273.07 354.99 273.07 368.64 273.07 382.3 259.42 382.3 259.42 395.95 259.42 409.6 245.77 409.6 245.77 423.26 245.77 436.91 259.42 436.91 273.07 436.91 273.07 450.57 286.73 450.57 286.73 464.22 300.38 464.22 300.38 477.87 314.03 477.87 314.03 491.53 314.03 505.18 314.03 518.83 314.03 532.49 314.03 546.14 327.69 546.14 327.69 532.49 341.34 532.49 341.34 518.83 341.34 505.18 354.99 505.18 354.99 491.53 354.99 477.87 368.65 477.87 368.65 464.22 368.65 450.57 368.65 436.91 368.65 423.26 368.65 409.6 354.99 409.6"/><rect class="cls-1" x="273.07" y="286.72" width="13.66" height="13.66"/><rect class="cls-1" x="273.07" y="150.19" width="13.66" height="13.65"/><rect class="cls-1" x="259.42" y="300.38" width="13.65" height="13.65"/><rect class="cls-2" x="259.42" y="286.72" width="13.65" height="13.66"/><rect class="cls-1" x="259.42" y="273.07" width="13.65" height="13.65"/><rect class="cls-1" x="259.42" y="163.84" width="13.65" height="13.66"/><rect class="cls-2" x="259.42" y="150.19" width="13.65" height="13.65"/><rect class="cls-1" x="259.42" y="136.54" width="13.65" height="13.65"/><rect class="cls-1" x="245.77" y="286.72" width="13.65" height="13.66"/><rect class="cls-1" x="245.77" y="150.19" width="13.65" height="13.65"/><polygon class="cls-3" points="245.77 409.6 259.42 409.6 259.42 395.95 259.42 382.3 273.07 382.3 273.07 368.64 273.07 354.99 286.73 354.99 286.73 341.34 286.73 327.68 273.07 327.68 259.42 327.68 245.77 327.68 232.11 327.68 218.46 327.68 204.81 327.68 191.15 327.68 177.5 327.68 163.85 327.68 150.19 327.68 136.54 327.68 122.89 327.68 109.23 327.68 95.58 327.68 81.92 327.68 81.92 341.34 81.92 354.99 95.58 354.99 95.58 368.64 95.58 382.3 109.23 382.3 109.23 395.95 109.23 409.6 122.89 409.6 122.89 423.26 122.89 436.91 136.54 436.91 136.54 450.57 150.19 450.57 163.85 450.57 163.85 436.91 163.85 423.26 163.85 409.6 163.85 395.95 163.85 382.3 163.85 368.64 163.85 354.99 177.5 354.99 191.15 354.99 204.81 354.99 204.81 368.64 204.81 382.3 204.81 395.95 204.81 409.6 204.81 423.26 204.81 436.91 204.81 450.57 218.46 450.57 232.11 450.57 232.11 436.91 245.77 436.91 245.77 423.26 245.77 409.6"/><polygon class="cls-2" points="204.81 450.57 204.81 464.22 191.15 464.22 191.15 477.87 191.15 491.53 191.15 505.18 204.81 505.18 204.81 491.53 218.46 491.53 218.46 477.87 218.46 464.22 232.11 464.22 232.11 450.57 218.46 450.57 204.81 450.57"/><polygon class="cls-1" points="191.15 477.87 191.15 464.22 204.81 464.22 204.81 450.57 204.81 436.91 204.81 423.26 204.81 409.6 204.81 395.95 204.81 382.3 204.81 368.64 204.81 354.99 191.15 354.99 177.5 354.99 163.85 354.99 163.85 368.64 163.85 382.3 163.85 395.95 163.85 409.6 163.85 423.26 163.85 436.91 163.85 450.57 163.85 464.22 177.5 464.22 177.5 477.87 177.5 491.53 177.5 505.18 177.5 518.83 177.5 532.49 177.5 546.14 191.15 546.14 191.15 532.49 191.15 518.83 191.15 505.18 191.15 491.53 191.15 477.87"/><polygon class="cls-2" points="177.5 477.87 177.5 464.22 163.85 464.22 163.85 450.57 150.19 450.57 136.54 450.57 136.54 464.22 150.19 464.22 150.19 477.87 150.19 491.53 163.85 491.53 163.85 505.18 177.5 505.18 177.5 491.53 177.5 477.87"/><polygon class="cls-4" points="136.54 245.76 150.19 245.76 150.19 259.42 163.85 259.42 163.85 273.07 177.5 273.07 191.15 273.07 204.81 273.07 204.81 259.42 218.46 259.42 218.46 245.76 232.11 245.76 232.11 232.11 232.11 218.46 232.11 204.8 218.46 204.8 218.46 191.15 204.81 191.15 204.81 177.5 191.15 177.5 177.5 177.5 163.85 177.5 163.85 191.15 150.19 191.15 150.19 204.8 136.54 204.8 136.54 218.46 136.54 232.11 136.54 245.76"/><path class="cls-1" d="M177.5,1024.01v27.31h13.65v13.65H204.8v13.65h68.27v-13.65h13.65v-13.65h13.66V983.05H286.72V969.4H273.07V955.74H204.8V969.4H191.15v13.65H177.5v40.96Zm13.65-27.31H204.8V983.05h13.66V969.4h40.96v13.65h13.65V996.7h13.65v40.96H273.07v13.66H259.42v13.65H218.46v-13.65H204.8v-13.66H191.15V996.7Z" transform="translate(-54.61 -791.9)"/><polygon class="cls-1" points="136.54 95.58 150.19 95.58 163.85 95.58 177.5 95.58 191.15 95.58 204.81 95.58 218.46 95.58 232.11 95.58 245.77 95.58 259.42 95.58 259.42 81.92 245.77 81.92 245.77 68.27 232.11 68.27 232.11 54.61 218.46 54.61 218.46 40.96 204.81 40.96 204.81 27.31 191.15 27.31 191.15 13.65 191.15 0 177.5 0 177.5 13.65 177.5 27.31 163.85 27.31 163.85 40.96 150.19 40.96 150.19 54.61 136.54 54.61 136.54 68.27 122.89 68.27 122.89 81.92 109.23 81.92 109.23 95.58 122.89 95.58 136.54 95.58"/><polygon class="cls-1" points="122.89 409.6 109.23 409.6 109.23 395.95 109.23 382.3 95.58 382.3 95.58 368.64 95.58 354.99 81.92 354.99 81.92 341.34 81.92 327.68 68.27 327.68 68.27 341.34 54.62 341.34 54.62 354.99 40.96 354.99 40.96 368.64 27.31 368.64 27.31 382.3 13.66 382.3 13.66 395.95 13.66 409.6 0 409.6 0 423.26 0 436.91 0 450.57 0 464.22 0 477.87 13.66 477.87 13.66 491.53 13.66 505.18 27.31 505.18 27.31 518.83 27.31 532.49 40.96 532.49 40.96 546.14 54.62 546.14 54.62 532.49 54.62 518.83 54.62 505.18 54.62 491.53 54.62 477.87 68.27 477.87 68.27 464.22 81.92 464.22 81.92 450.57 95.58 450.57 95.58 436.91 109.23 436.91 122.89 436.91 122.89 423.26 122.89 409.6"/><rect class="cls-1" x="109.23" y="286.72" width="13.66" height="13.66"/><rect class="cls-1" x="109.23" y="150.19" width="13.66" height="13.65"/><polygon class="cls-3" points="122.89 122.88 136.54 122.88 150.19 122.88 163.85 122.88 177.5 122.88 191.15 122.88 204.81 122.88 218.46 122.88 232.11 122.88 245.77 122.88 259.42 122.88 273.07 122.88 273.07 109.23 273.07 95.58 259.42 95.58 245.77 95.58 232.11 95.58 218.46 95.58 204.81 95.58 191.15 95.58 177.5 95.58 163.85 95.58 150.19 95.58 136.54 95.58 122.89 95.58 109.23 95.58 95.58 95.58 95.58 109.23 95.58 122.88 109.23 122.88 122.89 122.88"/><rect class="cls-1" x="95.58" y="300.38" width="13.65" height="13.65"/><rect class="cls-2" x="95.58" y="286.72" width="13.65" height="13.66"/><rect class="cls-1" x="95.58" y="273.07" width="13.65" height="13.65"/><rect class="cls-1" x="95.58" y="163.84" width="13.65" height="13.66"/><rect class="cls-2" x="95.58" y="150.19" width="13.65" height="13.65"/><rect class="cls-1" x="95.58" y="136.54" width="13.65" height="13.65"/><polygon class="cls-2" points="109.23 136.54 122.89 136.54 136.54 136.54 150.19 136.54 163.85 136.54 177.5 136.54 191.15 136.54 204.81 136.54 218.46 136.54 232.11 136.54 245.77 136.54 259.42 136.54 273.07 136.54 286.73 136.54 286.73 122.88 273.07 122.88 259.42 122.88 245.77 122.88 232.11 122.88 218.46 122.88 204.81 122.88 191.15 122.88 177.5 122.88 163.85 122.88 150.19 122.88 136.54 122.88 122.89 122.88 109.23 122.88 95.58 122.88 81.92 122.88 81.92 136.54 95.58 136.54 109.23 136.54"/><polygon class="cls-2" points="95.58 327.68 109.23 327.68 122.89 327.68 136.54 327.68 150.19 327.68 163.85 327.68 177.5 327.68 191.15 327.68 204.81 327.68 218.46 327.68 232.11 327.68 245.77 327.68 259.42 327.68 273.07 327.68 286.73 327.68 300.38 327.68 300.38 314.03 286.73 314.03 273.07 314.03 259.42 314.03 245.77 314.03 232.11 314.03 218.46 314.03 204.81 314.03 191.15 314.03 177.5 314.03 163.85 314.03 150.19 314.03 136.54 314.03 122.89 314.03 109.23 314.03 95.58 314.03 81.92 314.03 68.27 314.03 68.27 327.68 81.92 327.68 95.58 327.68"/><path class="cls-5" d="M150.19,1105.93v-13.65H136.53v-13.66h13.66v-13.65h13.65v13.65H177.5v13.66H163.84v13.65H314.03v-13.65H300.38v-13.66h13.65v-13.65h13.65v13.65h13.66v13.66H327.68v13.65h27.31v-27.31h13.65V955.74H354.99v-27.3H327.68v13.65h13.66v13.65H327.68V969.4H314.03V955.74H300.38V942.09h13.65V928.44H163.84v13.65H177.5v13.65H163.84V969.4H150.19V955.74H136.53V942.09h13.66V928.44H122.88v27.3H109.23v122.88h13.65v27.31h27.31ZM177.5,983.05h13.65V969.4H204.8V955.74h68.27V969.4h13.65v13.65h13.66v68.27H286.72v13.65H273.07v13.65H204.8v-13.65H191.15v-13.65H177.5V983.05Z" transform="translate(-54.61 -791.9)"/><rect class="cls-1" x="81.92" y="286.72" width="13.66" height="13.66"/><rect class="cls-1" x="81.92" y="150.19" width="13.66" height="13.65"/></svg>