<svg id="Capa_1" data-name="Capa 1" xmlns="http://www.w3.org/2000/svg" viewBox="0 0 1191.73 374.54"><defs><style>.cls-1{fill:#ff6f69;}.cls-2{fill:#990500;}.cls-3{fill:#ffb5b3;}</style></defs><title>redwidenotpressed</title><polygon class="cls-1" points="1174.7 17.02 1174.7 0 1157.68 0 1140.65 0 1123.63 0 1106.6 0 1089.58 0 1072.55 0 1055.53 0 1038.51 0 1021.48 0 1004.46 0 987.43 0 970.41 0 953.38 0 936.36 0 919.33 0 902.31 0 885.28 0 868.26 0 851.23 0 834.21 0 817.18 0 800.16 0 783.14 0 766.11 0 749.09 0 732.06 0 715.04 0 698.01 0 680.99 0 663.96 0 646.94 0 629.91 0 612.89 0 595.86 0 578.84 0 561.81 0 544.79 0 527.76 0 510.74 0 493.72 0 476.69 0 459.67 0 442.64 0 425.62 0 408.59 0 391.57 0 374.54 0 357.52 0 340.49 0 323.47 0 306.44 0 289.42 0 272.39 0 255.37 0 238.35 0 221.32 0 204.3 0 187.27 0 170.25 0 153.22 0 136.2 0 119.17 0 102.15 0 85.12 0 68.1 0 51.07 0 34.05 0 17.02 0 17.02 17.02 0 17.02 0 34.05 0 51.07 0 68.1 0 85.12 0 102.14 0 119.17 0 136.19 0 153.22 0 170.24 0 187.27 0 204.29 0 221.32 0 238.34 0 255.37 0 272.39 0 289.42 0 306.44 17.02 306.44 17.02 323.47 34.05 323.47 51.07 323.47 68.1 323.47 85.12 323.47 102.15 323.47 119.17 323.47 136.2 323.47 153.22 323.47 170.25 323.47 187.27 323.47 204.3 323.47 221.32 323.47 238.35 323.47 255.37 323.47 272.39 323.47 289.42 323.47 306.44 323.47 323.47 323.47 340.49 323.47 357.52 323.47 374.54 323.47 391.57 323.47 408.59 323.47 425.62 323.47 442.64 323.47 459.67 323.47 476.69 323.47 493.72 323.47 510.74 323.47 527.76 323.47 544.79 323.47 561.81 323.47 578.84 323.47 595.86 323.47 612.89 323.47 629.91 323.47 646.94 323.47 663.96 323.47 680.99 323.47 698.01 323.47 715.04 323.47 732.06 323.47 749.09 323.47 766.11 323.47 783.14 323.47 800.16 323.47 817.18 323.47 834.21 323.47 851.23 323.47 868.26 323.47 885.28 323.47 902.31 323.47 919.33 323.47 936.36 323.47 953.38 323.47 970.41 323.47 987.43 323.47 1004.46 323.47 1021.48 323.47 1038.51 323.47 1055.53 323.47 1072.55 323.47 1089.58 323.47 1106.6 323.47 1123.63 323.47 1140.65 323.47 1157.68 323.47 1174.7 323.47 1174.7 306.44 1191.73 306.44 1191.73 289.42 1191.73 272.39 1191.73 255.37 1191.73 238.34 1191.73 221.32 1191.73 204.29 1191.73 187.27 1191.73 170.24 1191.73 153.22 1191.73 136.19 1191.73 119.17 1191.73 102.14 1191.73 85.12 1191.73 68.1 1191.73 51.07 1191.73 34.05 1191.73 17.02 1174.7 17.02"/><polygon class="cls-2" points="1174.7 340.49 1157.68 340.49 1140.65 340.49 1123.63 340.49 1106.6 340.49 1089.58 340.49 1072.55 340.49 1055.53 340.49 1038.51 340.49 1021.48 340.49 1004.46 340.49 987.43 340.49 970.41 340.49 953.38 340.49 936.36 340.49 919.33 340.49 902.31 340.49 885.28 340.49 868.26 340.49 851.23 340.49 834.21 340.49 817.18 340.49 800.16 340.49 783.14 340.49 766.11 340.49 749.09 340.49 732.06 340.49 715.04 340.49 698.01 340.49 680.99 340.49 663.96 340.49 646.94 340.49 629.91 340.49 612.89 340.49 595.86 340.49 578.84 340.49 561.81 340.49 544.79 340.49 527.76 340.49 510.74 340.49 493.72 340.49 476.69 340.49 459.67 340.49 442.64 340.49 425.62 340.49 408.59 340.49 391.57 340.49 374.54 340.49 357.52 340.49 340.49 340.49 323.47 340.49 306.44 340.49 289.42 340.49 272.39 340.49 255.37 340.49 238.35 340.49 221.32 340.49 204.3 340.49 187.27 340.49 170.25 340.49 153.22 340.49 136.2 340.49 119.17 340.49 102.15 340.49 85.12 340.49 68.1 340.49 51.07 340.49 34.05 340.49 17.02 340.49 17.02 323.47 0 323.47 0 340.49 0 357.51 17.02 357.51 17.02 374.54 34.05 374.54 51.07 374.54 68.1 374.54 85.12 374.54 102.15 374.54 119.17 374.54 136.2 374.54 153.22 374.54 170.25 374.54 187.27 374.54 204.3 374.54 221.32 374.54 238.35 374.54 255.37 374.54 272.39 374.54 289.42 374.54 306.44 374.54 323.47 374.54 340.49 374.54 357.52 374.54 374.54 374.54 391.57 374.54 408.59 374.54 425.62 374.54 442.64 374.54 459.67 374.54 476.69 374.54 493.72 374.54 510.74 374.54 527.76 374.54 544.79 374.54 561.81 374.54 578.84 374.54 595.86 374.54 612.89 374.54 629.91 374.54 646.94 374.54 663.96 374.54 680.99 374.54 698.01 374.54 715.04 374.54 732.06 374.54 749.09 374.54 766.11 374.54 783.14 374.54 800.16 374.54 817.18 374.54 834.21 374.54 851.23 374.54 868.26 374.54 885.28 374.54 902.31 374.54 919.33 374.54 936.36 374.54 953.38 374.54 970.41 374.54 987.43 374.54 1004.46 374.54 1021.48 374.54 1038.51 374.54 1055.53 374.54 1072.55 374.54 1089.58 374.54 1106.6 374.54 1123.63 374.54 1140.65 374.54 1157.68 374.54 1174.7 374.54 1174.7 357.51 1191.73 357.51 1191.73 340.49 1191.73 323.47 1174.7 323.47 1174.7 340.49"/><rect class="cls-3" x="1174.7" y="306.44" width="17.03" height="17.03"/><polygon class="cls-3" points="34.05 340.49 51.07 340.49 68.1 340.49 85.12 340.49 102.15 340.49 119.17 340.49 136.2 340.49 153.22 340.49 170.25 340.49 187.27 340.49 204.3 340.49 221.32 340.49 238.35 340.49 255.37 340.49 272.39 340.49 289.42 340.49 306.44 340.49 323.47 340.49 340.49 340.49 357.52 340.49 374.54 340.49 391.57 340.49 408.59 340.49 425.62 340.49 442.64 340.49 459.67 340.49 476.69 340.49 493.72 340.49 510.74 340.49 527.76 340.49 544.79 340.49 561.81 340.49 578.84 340.49 595.86 340.49 612.89 340.49 629.91 340.49 646.94 340.49 663.96 340.49 680.99 340.49 698.01 340.49 715.04 340.49 732.06 340.49 749.09 340.49 766.11 340.49 783.14 340.49 800.16 340.49 817.18 340.49 834.21 340.49 851.23 340.49 868.26 340.49 885.28 340.49 902.31 340.49 919.33 340.49 936.36 340.49 953.38 340.49 970.41 340.49 987.43 340.49 1004.46 340.49 1021.48 340.49 1038.51 340.49 1055.53 340.49 1072.55 340.49 1089.58 340.49 1106.6 340.49 1123.63 340.49 1140.65 340.49 1157.68 340.49 1174.7 340.49 1174.7 323.47 1157.68 323.47 1140.65 323.47 1123.63 323.47 1106.6 323.47 1089.58 323.47 1072.55 323.47 1055.53 323.47 1038.51 323.47 1021.48 323.47 1004.46 323.47 987.43 323.47 970.41 323.47 953.38 323.47 936.36 323.47 919.33 323.47 902.31 323.47 885.28 323.47 868.26 323.47 851.23 323.47 834.21 323.47 817.18 323.47 800.16 323.47 783.14 323.47 766.11 323.47 749.09 323.47 732.06 323.47 715.04 323.47 698.01 323.47 680.99 323.47 663.96 323.47 646.94 323.47 629.91 323.47 612.89 323.47 595.86 323.47 578.84 323.47 561.81 323.47 544.79 323.47 527.76 323.47 510.74 323.47 493.72 323.47 476.69 323.47 459.67 323.47 442.64 323.47 425.62 323.47 408.59 323.47 391.57 323.47 374.54 323.47 357.52 323.47 340.49 323.47 323.47 323.47 306.44 323.47 289.42 323.47 272.39 323.47 255.37 323.47 238.35 323.47 221.32 323.47 204.3 323.47 187.27 323.47 170.25 323.47 153.22 323.47 136.2 323.47 119.17 323.47 102.15 323.47 85.12 323.47 68.1 323.47 51.07 323.47 34.05 323.47 17.02 323.47 17.02 340.49 34.05 340.49"/><rect class="cls-3" y="306.44" width="17.02" height="17.03"/></svg>